<svg width="20" height="24" viewBox="0 0 20 24" fill="none" xmlns="http://www.w3.org/2000/svg">
<path d="M14.5 9.35894L5.5 4.16895" stroke="#D7C100" stroke-width="2" stroke-linecap="round" stroke-linejoin="round"/>
<path d="M19 15.959V7.95901C18.9996 7.60828 18.9071 7.26382 18.7315 6.96017C18.556 6.65652 18.3037 6.40437 18 6.22901L11 2.22901C10.696 2.05347 10.3511 1.96106 10 1.96106C9.64893 1.96106 9.30404 2.05347 9 2.22901L2 6.22901C1.69626 6.40437 1.44398 6.65652 1.26846 6.96017C1.09294 7.26382 1.00036 7.60828 1 7.95901V15.959C1.00036 16.3097 1.09294 16.6542 1.26846 16.9578C1.44398 17.2615 1.69626 17.5136 2 17.689L9 21.689C9.30404 21.8645 9.64893 21.957 10 21.957C10.3511 21.957 10.696 21.8645 11 21.689L18 17.689C18.3037 17.5136 18.556 17.2615 18.7315 16.9578C18.9071 16.6542 18.9996 16.3097 19 15.959Z" stroke="#D7C100" stroke-width="2" stroke-linecap="round" stroke-linejoin="round"/>
<path d="M1.27002 6.91895L10 11.9689L18.73 6.91895" stroke="#D7C100" stroke-width="2" stroke-linecap="round" stroke-linejoin="round"/>
<path d="M10 22.039V11.959" stroke="#D7C100" stroke-width="2" stroke-linecap="round" stroke-linejoin="round"/>
</svg>
