<svg width="28" height="20" viewBox="0 0 28 20" fill="none" xmlns="http://www.w3.org/2000/svg">
<path d="M26.9735 3.76953L18.8119 0C17.9693 1.08594 16.104 1.84375 13.9284 1.84375C11.7528 1.84375 9.8874 1.08594 9.04483 0L0.883251 3.76953C0.552093 3.92578 0.417953 4.30078 0.581436 4.60938L2.97919 9.08203C3.14686 9.39062 3.54928 9.51562 3.88044 9.36328L6.25304 8.28125C6.69738 8.07812 7.21718 8.37891 7.21718 8.84375V18.75C7.21718 19.4414 7.81661 20 8.55858 20H19.2898C20.0317 20 20.6312 19.4414 20.6312 18.75V8.83984C20.6312 8.37891 21.151 8.07422 21.5953 8.27734L23.9679 9.35938C24.2991 9.51562 24.7015 9.39062 24.8692 9.07812L27.2711 4.60938C27.4388 4.30078 27.3046 3.92188 26.9735 3.76953Z" fill="black"/>
</svg>
