<svg width="25" height="25" viewBox="0 0 25 25" fill="none" xmlns="http://www.w3.org/2000/svg">
<path d="M12.1094 0.5C5.41992 0.5 0 5.91992 0 12.6094C0 19.2988 5.41992 24.7188 12.1094 24.7188C18.7988 24.7188 24.2188 19.2988 24.2188 12.6094C24.2188 5.91992 18.7988 0.5 12.1094 0.5ZM14.8975 17.5947L10.5908 14.4648C10.4395 14.3525 10.3516 14.1768 10.3516 13.9912V5.77344C10.3516 5.45117 10.6152 5.1875 10.9375 5.1875H13.2812C13.6035 5.1875 13.8672 5.45117 13.8672 5.77344V12.4971L16.9678 14.7529C17.2314 14.9434 17.2852 15.3096 17.0947 15.5732L15.7178 17.4678C15.5273 17.7266 15.1611 17.7852 14.8975 17.5947Z" fill="#06709E"/>
</svg>
