<svg width="22" height="23" viewBox="0 0 22 23" fill="none" xmlns="http://www.w3.org/2000/svg">
<path d="M19 8.07791H10C8.89543 8.07791 8 8.97334 8 10.0779V19.0779C8 20.1825 8.89543 21.0779 10 21.0779H19C20.1046 21.0779 21 20.1825 21 19.0779V10.0779C21 8.97334 20.1046 8.07791 19 8.07791Z" stroke="black" stroke-width="2" stroke-linecap="round" stroke-linejoin="round"/>
<path d="M4 14.0779H3C2.46957 14.0779 1.96086 13.8672 1.58579 13.4921C1.21071 13.1171 1 12.6083 1 12.0779V3.07791C1 2.54748 1.21071 2.03877 1.58579 1.6637C1.96086 1.28862 2.46957 1.07791 3 1.07791H12C12.5304 1.07791 13.0391 1.28862 13.4142 1.6637C13.7893 2.03877 14 2.54748 14 3.07791V4.07791" stroke="black" stroke-width="2" stroke-linecap="round" stroke-linejoin="round"/>
</svg>
