<svg width="26" height="20" viewBox="0 0 26 20" fill="none" xmlns="http://www.w3.org/2000/svg">
<g clip-path="url(#clip0_104_2329)">
<rect width="25.0002" height="20" transform="translate(0.828369)" fill="white"/>
<path d="M17.7027 17.5004L15.8289 17.5023V16.25H10.8289V17.5082L8.95467 17.5102C8.61014 17.5105 8.33084 17.7898 8.33045 18.1348L8.3285 19.3742C8.32811 19.7199 8.60858 20.0004 8.95428 20L17.7027 19.9898C18.0472 19.9895 18.3265 19.7102 18.3269 19.3656L18.3285 18.1262C18.3289 17.7805 18.0484 17.5 17.7027 17.5004ZM23.6879 1.04453C23.5855 0.441797 23.0547 0 22.4324 0H4.2242C3.60194 0 3.07108 0.441797 2.96873 1.04453C0.698811 14.4203 0.830061 13.5969 0.829671 13.75C0.828499 14.4266 1.38787 15 2.10311 15H24.5539C25.266 15 25.8238 14.4312 25.8269 13.7582C25.8277 13.5988 25.9578 14.4203 23.6879 1.04453ZM10.9781 2.5H15.6785L16.0601 6.25H10.5965L10.9781 2.5ZM8.04178 12.5H3.60545L4.34803 8.125H8.48748L8.04178 12.5ZM8.67811 6.25H4.666L5.30233 2.5H9.05975L8.67811 6.25ZM9.96014 12.5L10.4055 8.125H16.2512L16.6965 12.5H9.96014ZM17.5969 2.5H21.3543L21.9906 6.25H17.9785L17.5969 2.5ZM18.6148 12.5L18.1695 8.125H22.309L23.0515 12.5H18.6148Z" fill="black"/>
</g>
<defs>
<clipPath id="clip0_104_2329">
<rect width="25.0002" height="20" fill="white" transform="translate(0.828369)"/>
</clipPath>
</defs>
</svg>
