<svg width="20" height="24" viewBox="0 0 20 24" fill="none" xmlns="http://www.w3.org/2000/svg">
<g clip-path="url(#clip0_104_2326)">
<rect width="20" height="23" transform="translate(0 0.0951843)" fill="white"/>
<path d="M10 23.0952C11.5768 23.0952 12.8558 21.8082 12.8558 20.2202H7.1442C7.1442 21.8082 8.42322 23.0952 10 23.0952ZM19.6156 16.3699C18.7531 15.4374 17.1393 14.0344 17.1393 9.43893C17.1393 5.9485 14.7071 3.15436 11.4277 2.46886V1.53268C11.4277 0.738915 10.7884 0.0951843 10 0.0951843C9.21161 0.0951843 8.57232 0.738915 8.57232 1.53268V2.46886C5.29287 3.15436 2.86074 5.9485 2.86074 9.43893C2.86074 14.0344 1.2469 15.4374 0.384405 16.3699C0.116548 16.6597 -0.00220127 17.006 3.08654e-05 17.3452C0.00494156 18.0819 0.579493 18.7827 1.43306 18.7827H18.5669C19.4205 18.7827 19.9955 18.0819 20 17.3452C20.0022 17.006 19.8835 16.6592 19.6156 16.3699Z" fill="black"/>
</g>
<defs>
<clipPath id="clip0_104_2326">
<rect width="20" height="23" fill="white" transform="translate(0 0.0951843)"/>
</clipPath>
</defs>
</svg>
