<svg width="16" height="2" viewBox="0 0 16 2" fill="none" xmlns="http://www.w3.org/2000/svg">
<g clip-path="url(#clip0_104_2348)">
<rect width="16" height="2" fill="white"/>
<path d="M8 2C8.55228 2 9 1.55228 9 1C9 0.447715 8.55228 0 8 0C7.44772 0 7 0.447715 7 1C7 1.55228 7.44772 2 8 2Z" stroke="black" stroke-width="2" stroke-linecap="round" stroke-linejoin="round"/>
<path d="M15 2C15.5523 2 16 1.55228 16 1C16 0.447715 15.5523 0 15 0C14.4477 0 14 0.447715 14 1C14 1.55228 14.4477 2 15 2Z" stroke="black" stroke-width="2" stroke-linecap="round" stroke-linejoin="round"/>
<path d="M1 2C1.55228 2 2 1.55228 2 1C2 0.447715 1.55228 0 1 0C0.447715 0 0 0.447715 0 1C0 1.55228 0.447715 2 1 2Z" stroke="black" stroke-width="2" stroke-linecap="round" stroke-linejoin="round"/>
</g>
<defs>
<clipPath id="clip0_104_2348">
<rect width="16" height="2" fill="white"/>
</clipPath>
</defs>
</svg>
