<svg width="20" height="20" viewBox="0 0 20 20" fill="none" xmlns="http://www.w3.org/2000/svg">
<g clip-path="url(#clip0_104_2360)">
<rect width="19.8284" height="19.8284" fill="white"/>
<path d="M15 0.828427C15.2626 0.565783 15.5744 0.357443 15.9176 0.215301C16.2608 0.0731593 16.6286 2.7674e-09 17 0C17.3714 -2.7674e-09 17.7392 0.0731593 18.0824 0.215301C18.4256 0.357443 18.7374 0.565783 19 0.828427C19.2626 1.09107 19.471 1.40287 19.6131 1.74603C19.7553 2.0892 19.8284 2.45699 19.8284 2.82843C19.8284 3.19986 19.7553 3.56766 19.6131 3.91082C19.471 4.25398 19.2626 4.56578 19 4.82843L5.5 18.3284L0 19.8284L1.5 14.3284L15 0.828427Z" stroke="black" stroke-width="2" stroke-linecap="round" stroke-linejoin="round"/>
</g>
<defs>
<clipPath id="clip0_104_2360">
<rect width="19.8284" height="19.8284" fill="white"/>
</clipPath>
</defs>
</svg>
