<svg width="22" height="22" viewBox="0 0 22 22" fill="none" xmlns="http://www.w3.org/2000/svg">
<path d="M16 1.91424C16.2626 1.6516 16.5744 1.44326 16.9176 1.30112C17.2608 1.15897 17.6286 1.08582 18 1.08582C18.3714 1.08582 18.7392 1.15897 19.0824 1.30112C19.4256 1.44326 19.7374 1.6516 20 1.91424C20.2626 2.17689 20.471 2.48869 20.6131 2.83185C20.7553 3.17501 20.8284 3.54281 20.8284 3.91424C20.8284 4.28568 20.7553 4.65347 20.6131 4.99663C20.471 5.3398 20.2626 5.6516 20 5.91424L6.5 19.4142L1 20.9142L2.5 15.4142L16 1.91424Z" stroke="black" stroke-width="2" stroke-linecap="round" stroke-linejoin="round"/>
</svg>
