<svg width="25" height="22" viewBox="0 0 25 22" fill="none" xmlns="http://www.w3.org/2000/svg">
<path d="M6.81687 0.624745C6.76243 0.57012 6.69775 0.526778 6.62653 0.497205C6.55531 0.467631 6.47895 0.452408 6.40183 0.452408C6.32471 0.452408 6.24835 0.467631 6.17713 0.497205C6.10591 0.526778 6.04123 0.57012 5.98679 0.624745L2.87742 3.71605L1.76902 2.63598C1.71458 2.58135 1.6499 2.53801 1.57868 2.50844C1.50745 2.47886 1.4311 2.46364 1.35398 2.46364C1.27686 2.46364 1.2005 2.47886 1.12928 2.50844C1.05806 2.53801 0.993374 2.58135 0.938939 2.63598L0.172337 3.40355C0.117712 3.45799 0.0743702 3.52267 0.0447967 3.59389C0.0152232 3.66512 0 3.74148 0 3.81859C0 3.89571 0.0152232 3.97207 0.0447967 4.04329C0.0743702 4.11451 0.117712 4.1792 0.172337 4.23363L2.49607 6.54808C2.61206 6.65834 2.76597 6.71982 2.926 6.71982C3.08603 6.71982 3.23994 6.65834 3.35593 6.54808L4.11716 5.78539L7.64255 2.26049C7.75239 2.15056 7.81446 2.00175 7.81528 1.84635C7.8161 1.69095 7.75562 1.5415 7.64695 1.43041L6.81687 0.624745ZM6.81687 8.39769C6.76243 8.34307 6.69775 8.29973 6.62653 8.27015C6.55531 8.24058 6.47895 8.22536 6.40183 8.22536C6.32471 8.22536 6.24835 8.24058 6.17713 8.27015C6.10591 8.29973 6.04123 8.34307 5.98679 8.39769L2.87742 11.509L1.76902 10.4299C1.71458 10.3753 1.6499 10.332 1.57868 10.3024C1.50745 10.2728 1.4311 10.2576 1.35398 10.2576C1.27686 10.2576 1.2005 10.2728 1.12928 10.3024C1.05806 10.332 0.993374 10.3753 0.938939 10.4299L0.172337 11.196C0.117712 11.2505 0.0743702 11.3152 0.0447967 11.3864C0.0152232 11.4576 0 11.534 0 11.6111C0 11.6882 0.0152232 11.7646 0.0447967 11.8358C0.0743702 11.907 0.117712 11.9717 0.172337 12.0261L2.49021 14.3454C2.60612 14.4557 2.75995 14.5171 2.9199 14.5171C3.07984 14.5171 3.23368 14.4557 3.34958 14.3454L4.11619 13.5793L7.64158 10.053C7.751 9.94381 7.81285 9.79583 7.81368 9.64127C7.8145 9.48672 7.75422 9.33809 7.64597 9.22777L6.81687 8.39769ZM3.12497 16.8601C1.83152 16.8601 0.752415 17.9099 0.752415 19.2038C0.752415 20.4978 1.83249 21.5476 3.12497 21.5476C3.74657 21.5476 4.34272 21.3007 4.78226 20.8611C5.22179 20.4216 5.46872 19.8254 5.46872 19.2038C5.46872 18.5822 5.22179 17.9861 4.78226 17.5466C4.34272 17.107 3.74657 16.8601 3.12497 16.8601ZM24.2187 17.6413H10.1562C9.94902 17.6413 9.75031 17.7237 9.6038 17.8702C9.45728 18.0167 9.37497 18.2154 9.37497 18.4226V19.9851C9.37497 20.1923 9.45728 20.391 9.6038 20.5375C9.75031 20.684 9.94902 20.7663 10.1562 20.7663H24.2187C24.4259 20.7663 24.6246 20.684 24.7712 20.5375C24.9177 20.391 25 20.1923 25 19.9851V18.4226C25 18.2154 24.9177 18.0167 24.7712 17.8702C24.6246 17.7237 24.4259 17.6413 24.2187 17.6413ZM24.2187 2.01635H10.1562C9.94902 2.01635 9.75031 2.09866 9.6038 2.24517C9.45728 2.39168 9.37497 2.5904 9.37497 2.7976V4.3601C9.37497 4.5673 9.45728 4.76601 9.6038 4.91252C9.75031 5.05904 9.94902 5.14135 10.1562 5.14135H24.2187C24.4259 5.14135 24.6246 5.05904 24.7712 4.91252C24.9177 4.76601 25 4.5673 25 4.3601V2.7976C25 2.5904 24.9177 2.39168 24.7712 2.24517C24.6246 2.09866 24.4259 2.01635 24.2187 2.01635ZM24.2187 9.82885H10.1562C9.94902 9.82885 9.75031 9.91116 9.6038 10.0577C9.45728 10.2042 9.37497 10.4029 9.37497 10.6101V12.1726C9.37497 12.3798 9.45728 12.5785 9.6038 12.725C9.75031 12.8715 9.94902 12.9538 10.1562 12.9538H24.2187C24.4259 12.9538 24.6246 12.8715 24.7712 12.725C24.9177 12.5785 25 12.3798 25 12.1726V10.6101C25 10.4029 24.9177 10.2042 24.7712 10.0577C24.6246 9.91116 24.4259 9.82885 24.2187 9.82885Z" fill="black"/>
</svg>
