<svg width="18" height="20" viewBox="0 0 18 20" fill="none" xmlns="http://www.w3.org/2000/svg">
<g clip-path="url(#clip0_104_2316)">
<rect width="18" height="20" fill="white"/>
<path d="M16 9H2C0.89543 9 0 9.89543 0 11V18C0 19.1046 0.89543 20 2 20H16C17.1046 20 18 19.1046 18 18V11C18 9.89543 17.1046 9 16 9Z" stroke="black" stroke-width="2" stroke-linecap="round" stroke-linejoin="round"/>
<path d="M4 9V5C4 3.67392 4.52678 2.40215 5.46447 1.46447C6.40215 0.526784 7.67392 0 9 0C10.3261 0 11.5979 0.526784 12.5355 1.46447C13.4732 2.40215 14 3.67392 14 5V9" stroke="black" stroke-width="2" stroke-linecap="round" stroke-linejoin="round"/>
</g>
<defs>
<clipPath id="clip0_104_2316">
<rect width="18" height="20" fill="white"/>
</clipPath>
</defs>
</svg>
