<svg width="20" height="20" viewBox="0 0 20 20" fill="none" xmlns="http://www.w3.org/2000/svg">
<g clip-path="url(#clip0_104_2340)">
<rect width="19.6826" height="20.0001" fill="white"/>
<path d="M5 9L9 0C9.79565 0 10.5587 0.316071 11.1213 0.87868C11.6839 1.44129 12 2.20435 12 3V7H17.66C17.9499 6.99672 18.2371 7.0565 18.5016 7.17522C18.7661 7.29393 19.0016 7.46873 19.1919 7.68751C19.3821 7.90629 19.5225 8.16382 19.6033 8.44225C19.6842 8.72068 19.7035 9.01336 19.66 9.3L18.28 18.3C18.2077 18.7769 17.9654 19.2116 17.5979 19.524C17.2304 19.8364 16.7623 20.0055 16.28 20H5M5 9V20M5 9H2C1.46957 9 0.960859 9.21071 0.585786 9.58579C0.210714 9.96086 0 10.4696 0 11V18C0 18.5304 0.210714 19.0391 0.585786 19.4142C0.960859 19.7893 1.46957 20 2 20H5" stroke="black" stroke-width="2" stroke-linecap="round" stroke-linejoin="round"/>
</g>
<defs>
<clipPath id="clip0_104_2340">
<rect width="19.6826" height="20.0001" fill="white"/>
</clipPath>
</defs>
</svg>
